<svg version="1.2" xmlns="http://www.w3.org/2000/svg" viewBox="0 0 2259 1993" width="2259" height="1993"><style>.a{fill:#608768}.b{fill:#d8854a}.c{fill:#da9b4d}.d{fill:#709a6d}.e{fill:#e6c8b3}.f{fill:#5f3a47}.g{fill:#dcba77}.h{fill:#e3605a}</style><path class="a" d="m1731 1455.8c107.5 3.6 177.1-82.3 219.3-170.7-63.8-5.5-127.8-3.2-184.7 29.4-49.5 28.3-89 74.7-106.8 129.1-28 12.9-56.1 25.5-84.4 37.5l-2.5-83.2c78.1-53.4 93.9-153.4 88.2-243.8-33.6 15.1-66 32.5-93.9 55.3l-2.5-82.3q32.5-21.7 64.3-44.6c15.6 3.1 31.4 5.1 47.2 6.4 10.5 0.9 21.1 1.4 31.6 1.5 44.5 40.5 103.9 63.5 163.9 65.6 71.7 2.6 134.8-27.8 194-65.6-86-64.2-197.2-112-299.5-53.8-5.1 2.9-57.3 34.7-66.2 43.2q-11.7 0.2-23.4 0.3h-44.2q14.9-10.8 29.7-21.7l38.2-29.2 37.7-29.9 25.8-21.6c20.4-2 65.5-10.4 70.4-11.4 115-24.9 166.1-134.6 187.4-239.8-69.3 11.3-136.6 30.7-188.4 80.5-45 43.2-74.6 102.9-79 165.4l-23 18.5-37.7 29.5-38.2 28.9c-29.9 22.4-60.3 44.2-91 65.4l-1.9-63.6 3.2-12.5 4.2-15.5 3.5-12c15.6-10.4 54.2-42.3 58.2-45.8 88.4-77.7 79.6-198.4 47-300.6-21.3 16.8-41.8 34.6-60 54.1q-2.3-2.1-4.7-4.1c-5.6-4.6-12-9-19.3-9.4-8.7-0.5-16.7 4.8-23.7 10q-9.3 6.7-18.2 13.9l-4.1-134.8c45.2 2.9 91.1-9.3 129.4-33.3 51.3-32.2 81-83.2 104.3-137.4-90.3-4.2-190.4 15-234.3 104-1.3 2.6-9.5 20.5-16.3 36.6l-36.8 0.4c8.5-25.6 16.4-51.3 23.8-77.1 13.3-11.2 40.6-38.1 43.5-41.2 68.5-71.7 52.3-172.4 17.4-255.8-42.9 40.6-80.7 86-93.3 145.1-11 51.5-3.4 107.2 23 152.9-7.7 25.5-15.8 50.9-24.4 76.2l-71.6 0.8c3.6-11.8 6.5-22 7.1-24.1 24.9-96-38.2-176-109.3-231.9-17.8 56.3-28.7 114.3-10.9 172.2 9.6 31.2 26.2 60.4 48.3 84.5l-576.9 6.3c-24.7-0.6-55.6 0.8-78.8 13.2q-0.6-1.3-1.2-2.6c3.8-9.5 7-19.3 9.7-29.2q2.7-9.8 4.7-19.8c30.9-23.4 52.5-58.4 61-96.1 10.2-45.2-1.6-88.8-18.5-130.7-50.9 46.8-94.4 111.6-69.7 183.4 1.3 3.5 15.2 40.4 19.5 47q-1.2 7.5-2.6 14.9l-5.2 28q-5.1-10.7-10.3-21.4c-12.3-25-25.3-49.8-39-74.1 1.1-13.3 1.2-42.7 1.1-45.9-2-75.9-65.5-121.3-129.6-147.2-1.1 45.2 3.2 90.1 28.6 128.9 22 33.6 56.4 59.5 95.5 69.8 12.7 23.6 25.1 47.5 36.9 71.7q6.6 13.5 13 27c-10.8 7.3-19.3 17.5-23.8 31.7-7.8-3.6-15.5-7.3-23.1-11.2-4.8-11.1-20.5-39.4-22.2-42.3-38.7-65.3-116.3-74.1-184.9-65.6 21 40 46.7 77.2 87.7 98.7 34.9 18.3 76.5 24.3 114.9 15.1 8.5 4.3 17.1 8.2 25.8 11.8q-0.3 1.4-0.5 2.9c0.4 16.5 3 105.7 4.8 165.6-14.6-27.1-33.3-52.3-53.5-76.4-48.1 85.4-78.3 191.7-13.6 277.5 3.3 4.3 38.1 47.8 46.9 54.9q1.6 10.6 3 21.2l5.2 40q-11.5-12.2-23.2-24.3c-27.5-28.4-55.9-56.1-85-82.9-4.3-18.3-17.1-57.9-18.6-62.2-36-101.3-141.4-134.7-239.1-141.6 18.3 61.4 43.8 120.1 94.9 161.1 44.5 35.8 102.1 55.6 159.2 52.2 27.6 26.4 54.7 53.2 81.2 80.6 17.5 18 34.8 36.3 51.8 54.9 0.2 10.5 0.4 21.6 0.6 33.1q-11.1-0.9-22.2-2.1c-18.4-1.9-36.8-4.1-55.1-7.1-11.3-12.9-44.8-44.2-48.4-47.4-80.7-71-189-48.8-277.8-7.3 45.9 44.7 96.7 83.6 161.4 94.6 55 9.3 113.6-0.8 161.4-30 19.2 3 38.6 4.9 58 5.3q11.4 0.3 22.8 0c1.2 63.2 2.6 138.8 4 211.7q-1.4-2.9-2.8-5.9c-29.4-58.6-81.3-95.9-137.5-126.8-13.9 97-3.5 207.1 88 263.7 3.8 2.3 38.7 22.6 56 30.9 0.4 14.4 0.8 27.9 1.2 40.4-34.1-15.5-68.6-30.2-103.5-43.8-10.7-15.5-36.9-47.8-39.9-51.2-70.3-81.4-180.6-74.3-274.2-45.3 39.3 50.6 84.3 96 146.9 115.7 54.4 17.2 115.2 14.7 167.3-9 34.9 14.3 69.5 29.3 103.8 45.1 1.2 35.5 2.4 60.2 3.5 68.1q1.1 7.5 2.5 14.7c-15.5-8-57.4-24.8-61.9-26.4-101-36.9-193.9 23-261.6 93.9 59 25 120.5 42.8 184.7 29.6 54.7-11.2 105.7-41.9 139.6-86.4q0.7-0.2 1.5-0.4c7.3 30.4 20.8 54.7 51.2 72.6 46.5 27.3 114.1 13.8 165.3 12.2 85.8-2.5 653.9-19.5 656.6-19.5l-1.9-236.4 13.1-0.1-0.1-4.4q7.7 2.4 15.5 4.5c30.4 45.7 78 79.3 130.6 94.5 63 18.2 125.7 5.3 186.4-15-61.8-76-149.8-143.1-253.4-114.2-5.1 1.4-58.4 18-68.2 23.5q-5.6-1.3-11.2-2.6l-1-31.8c30.9-13.2 61.4-27.1 91.6-41.8 18.6 2.7 60.2 5.3 64.7 5.4zm-1076.1-339.6c1-14.5 1-29 0.2-43.5-0.4-9.6-1.2-19.2-2.3-28.8 6.7-9.5 12.5-19.6 17.6-30q0.5 18 1 36c0.5 15.8 1.1 46.5 1.8 86.2q-9.1-10-18.3-19.9zm905.3-103.6l-0.4-11.5q1.1 2.5 2.2 5z"/><path class="b" d="m1670.5 826c-5.2-8.3-16.7-9.1-26.4-9.1-28.8 0.2-57.3-1-85.8-2.8 21.7-12.8 43.7-25.1 66.4-36.5 8.7-4.4 18.5-10.4 19.3-20.1 0.6-6.4-3.1-12.3-7-17.5-5.8-7.6-12.4-14.8-19.5-21.2q-2.3-2.1-4.7-4.1c-5.6-4.6-12-9-19.3-9.4-8.7-0.5-16.7 4.8-23.7 9.9q-9.3 6.8-18.2 14l-4.1-134.8-0.4-12.3-0.3-11.5-0.2-6.5-16 0.2-36.8 0.4-10 0.1-71.6 0.8-22.3 0.2-9 0.1-33.5 0.4-576.9 6.3c-24.7-0.6-55.6 0.8-78.8 13.2q-3.2 1.7-6.1 3.7c-10.8 7.3-19.3 17.5-23.8 31.7q-1 3.1-1.8 6.5-0.3 1.4-0.5 2.9c0.4 16.5 3 105.7 4.8 165.6 0.3 12.4 0.6 23.5 0.9 32.5q2.6 92.6 5.2 185.2 0.5 18 1 36c0.5 15.8 1.1 46.5 1.8 86.2q0.2 7.3 0.3 15.1c0.2 10.5 0.4 21.6 0.6 33.1q0.1 2.9 0.1 6c1.2 63.2 2.6 138.8 4 211.7 1 45.8 1.9 90.4 2.9 130.3q0.3 10.9 0.6 21.2 0.1 5.3 0.2 10.4c0.4 14.4 0.8 27.9 1.2 40.4q0.2 5.9 0.4 11.5c1.2 35.5 2.4 60.2 3.5 68.1q1.1 7.5 2.5 14.7 0 0.1 0.1 0.2 1 5.2 2.2 10.1c7.3 30.4 20.8 54.7 51.2 72.6 46.5 27.3 114.1 13.8 165.3 12.2 85.8-2.5 653.9-19.5 656.6-19.5l-1.9-236.4 13.1-0.1-0.1-4.4-0.3-9.3-1-31.8-0.3-11.1-2.5-83.2-5.7-188.5-2.5-82.3-0.4-12.4-1.9-63.6-1.2-38.5-0.4-11.5-0.5-18c2.3 1.3 4.8 2.3 7.5 2.7q0.8 0.2 1.6 0.3c4.1 0.3 8.2-0.6 12.2-2 2.4-0.9 4.8-2 7.1-3.1 10.4-5.3 20.3-11.7 29.3-19.2 4.9-4.1 9.9-9.1 10.8-15.4 1.4-9.7-6.9-17.7-14.4-24q-4-3.4-8.1-6.8-2.1-1.8-4.2-3.7c-9.6-8.3-19-16.7-28.3-25.3 12.6 3.3 25.3 6.2 38.2 8.6q1.1 0.2 2.2 0.4 5.2 1 10.4 1.8c8.7 1.4 18.2 2.5 25.7-1.9 6.3-3.7 10-10.6 12.8-17.2 4.6-10.8 8-22.1 10.1-33.6 1.1-6.3 1.7-13.3-1.7-18.7z"/><path class="c" d="m1670.5 826c-5.2-8.3-16.7-9.1-26.4-9.1-28.8 0.2-57.3-1-85.8-2.8 21.7-12.8 43.7-25.1 66.4-36.5 8.7-4.4 18.5-10.4 19.3-20.1 0.6-6.4-3.1-12.3-7-17.5-5.8-7.6-12.4-14.8-19.5-21.2q-2.3-2.1-4.7-4.1c-5.6-4.6-12-9-19.3-9.4-8.7-0.5-16.7 4.8-23.7 9.9q-9.3 6.8-18.2 14l-4.1-134.8-0.4-12.3-0.3-11.5-0.2-6.5-16 0.2-36.8 0.4-10 0.1-71.6 0.8-22.3 0.2-9 0.1-33.5 0.4-576.9 6.3 27.2 975.3 8.9-0.1 742.5-9.8 13.9-0.2 13.1-0.1-0.1-4.4-0.3-9.3-1-31.8-0.3-11.1-2.5-83.2-5.7-188.5-2.5-82.3-0.4-12.4-1.9-63.6-1.2-38.5-0.4-11.5-0.5-18c2.3 1.3 4.8 2.3 7.5 2.7q0.8 0.2 1.6 0.3c4.1 0.3 8.2-0.6 12.2-2 2.4-0.9 4.8-2 7.1-3.1 10.4-5.3 20.3-11.7 29.3-19.2 4.9-4.1 9.9-9.1 10.8-15.4 1.4-9.7-6.9-17.7-14.4-24q-4-3.4-8.1-6.8-2.1-1.8-4.2-3.7c-9.6-8.3-19-16.7-28.3-25.3 12.6 3.3 25.3 6.2 38.2 8.6q1.1 0.2 2.2 0.4 5.2 1 10.4 1.8c8.7 1.4 18.2 2.5 25.7-1.9 6.3-3.7 10-10.6 12.8-17.2 4.6-10.8 8-22.1 10.1-33.6 1.1-6.3 1.7-13.3-1.7-18.7z"/><path class="d" d="m1470.1 1048.7c-10.2-6.8-22.6-9.2-34.8-9.8-27.8-1.4-56 6.5-79.3 21.7l13.5-24.9c14.4-27.5 29.2-54.7 43.3-82.3q7.9-15.3 15.8-30.6 1.3-7.3 2.7-14.7-11.2 9.8-22.2 19.8-5.2 8.8-10.4 17.7c-15.8 26.7-30.9 53.8-46.3 80.7q-7.5 13.2-14.8 26.4c0-26.9-8.2-53.8-23.5-75.9-4.1-5.9-8.7-11.4-14.1-16.1-3.8-3.3-8-6.2-12.7-8.3-11.1-5.1-24.9-5.3-34.9 1.8-2.8 2-5.2 4.5-7.2 7.2-6.2 8.9-8.3 20.9-8.8 32.1-1.8 45.2 15.3 90.9 46.4 123.8 3.9 4.1 8.5 8.2 13.5 11q-12.3 23.1-24.4 46.3c-0.8-28.5-10.9-56.7-28.6-79-7.6-9.6-16.8-18.3-28.2-22.6-11.4-4.4-25.2-3.7-34.7 4-11.4 9.2-13.8 25.6-13.5 40.2 1 45.3 21 89.8 54.2 120.6 4.1 3.8 8.8 7.5 13.8 10q-6.3 12.9-12.4 25.8-9.5 19.9-18.6 40c0.3-30.2-9.9-60.4-28.6-84.1-7.6-9.5-16.9-18.2-28.2-22.6-11.4-4.3-25.3-3.7-34.8 4-11.4 9.2-13.8 25.6-13.4 40.2 1 45.3 21 89.8 54.2 120.6 5.7 5.4 12.7 10.5 20.1 12.6-8.2 20.1-16 40.5-23.3 61q15-28.7 30-57.3c5.4 3.1 11.8 5 17.8 6.2 44.4 9 92.2-0.6 129.6-26.1 12.1-8.3 24-19.8 24.9-34.4 0.7-12.2-6.8-23.8-17-30.6-10.2-6.7-22.6-9.1-34.8-9.7-29.5-1.5-59.3 7.4-83.3 24.4q9.8-18.4 19.8-36.9l13.8-25.4c4.7 2.2 10 3.8 15.1 4.8 44.3 9 92.1-0.7 129.5-26.2 12.1-8.2 24-19.7 24.9-34.3 0.7-12.2-6.8-23.9-17-30.6-10.1-6.7-22.6-9.2-34.8-9.8-26.7-1.3-53.8 5.9-76.5 20l24.4-45.1c5 2.6 10.8 4.3 16.3 5.5 44.4 9 92.2-0.7 129.6-26.2 12.1-8.3 24-19.7 24.9-34.4 0.7-12.2-6.8-23.8-17-30.5z"/><path class="e" d="m806.6 1547.8q-0.3 0-0.3 0c-23.3 0.4-41.2 10.6-53.8 26.3-32.4 40.1-30 115.8 6 152.6 13 13.4 30.5 21.6 52.4 21.1l738.2-17.6v-192.2z"/><path class="d" d="m1748.7 1078.3l14.6-0.8 14.6-0.8q7.3-0.6 14.6-0.9l58.8-4.4c-18.9 6-38.3 10.1-57.8 13.2-9.7 1.6-19.6 2.6-29.4 3.6-9.9 0.9-19.7 1.5-29.6 2q-13.9 0.4-27.7 0.2c44.5 40.5 103.9 63.5 163.9 65.6 71.7 2.6 134.8-27.8 194-65.6-86-64.2-197.2-112-299.5-53.8-5.1 2.9-57.3 34.7-66.2 43.2 11.7-0.2 23.4-0.4 35.1-1z"/><path class="d" d="m1572.8 886.6c9.3 8.6 18.7 17 28.3 25.3q4.7-8.5 9.9-16.7c-12.9-2.4-25.6-5.3-38.2-8.6z"/><path class="d" d="m1637 740c3.9 5.2 7.6 11.1 7 17.5-0.8 9.7-10.6 15.7-19.3 20.1-22.7 11.4-44.7 23.7-66.4 36.5 28.5 1.8 57 3 85.8 2.8 9.7 0 21.2 0.8 26.4 9.1 3.4 5.4 2.8 12.4 1.7 18.7-2.1 11.5-5.5 22.8-10.1 33.6-2.8 6.6-6.5 13.5-12.8 17.2-7.5 4.4-17 3.3-25.7 1.9q-5.2-0.8-10.4-1.8-3.9 10-7.9 20 4.1 3.4 8.1 6.8c7.5 6.3 15.8 14.3 14.4 24-0.9 6.3-5.9 11.3-10.8 15.4-9 7.5-18.9 13.9-29.3 19.2-2.3 1.1-4.7 2.2-7.1 3.1q-3.8 11.7-7.2 23.5l-1.1 3.5c15.6-10.4 54.2-42.3 58.2-45.8 88.4-77.7 79.6-198.4 47-300.6-21.3 16.8-41.7 34.6-60 54.1 7.1 6.4 13.7 13.6 19.5 21.2z"/><path class="d" d="m1562.5 1004.3q2.8-9.2 5.9-18.2-0.8-0.1-1.6-0.3c-2.7-0.4-5.2-1.4-7.5-2.7l0.5 18q1.1 2.5 2.2 5z"/><path class="f" d="m1628 1082.5c15.6 3.1 31.4 5.1 47.2 6.4 10.5 0.9 21.1 1.4 31.6 1.5q13.8 0.2 27.7-0.2c9.9-0.5 19.7-1.1 29.6-2 9.8-1 19.7-2 29.4-3.6 19.5-3.1 38.9-7.2 57.8-13.2l-58.8 4.4q-7.3 0.3-14.6 0.9l-14.6 0.8-14.6 0.8-14.6 0.5c-11.7 0.6-23.4 0.8-35.1 1q-11.7 0.2-23.4 0.3h-44.2q14.9-10.8 29.7-21.7l38.2-29.2 37.7-29.9 25.8-21.6 11.1-9.2 36.3-31.6c48-42.5 93.9-87.3 137.5-134.1q-70.1 65.6-143.3 127.4l-36.9 30.6-14.3 11.6-23 18.5-37.7 29.5-38.2 28.9c-29.9 22.4-60.3 44.2-91 65.4l0.4 12.4q32.5-21.7 64.3-44.6z"/><path class="f" d="m1580.6 984.1c-4 1.4-8.1 2.3-12.2 2q-3.1 9-5.9 18.2l-0.5 1.8-1.8 6.5 1.2 38.5 3.2-12.5 4.2-15.5 3.5-12 1.1-3.5q3.4-11.8 7.2-23.5z"/><path class="f" d="m1611 895.2q-5.2 8.2-9.9 16.7 2.1 1.9 4.2 3.7 4-10 7.9-20-1.1-0.2-2.2-0.4z"/><path class="d" d="m629.5 968l-10.8-52.7c7.6 16.4 13.6 33.4 18.6 50.8 5.1 17.3 9 35 12 52.8q2.1 12.4 3.5 25c6.7-9.5 12.5-19.6 17.6-30q-2.6-92.6-5.2-185.2c-0.3-9-0.6-20.1-0.9-32.5-14.6-27.1-33.3-52.3-53.5-76.4-48.1 85.4-78.3 191.7-13.6 277.5 3.3 4.3 38.1 47.8 46.9 54.9-1.5-10.6-3.2-21.1-5-31.6-2.8-17.6-6.2-35.1-9.6-52.6z"/><path class="d" d="m533.3 1171.1c-19.1-5.9-37.8-13.1-55.6-22.1 19.3 5 38.5 10 57.7 14.3 19.3 4.3 38.6 8.2 58 11.2q1.7 0.3 3.4 0.6c-11.3-12.9-44.8-44.2-48.4-47.4-80.7-71-189-48.8-277.8-7.3 45.9 44.7 96.7 83.6 161.4 94.6 55 9.3 113.6-0.8 161.4-30q-0.8-0.1-1.7-0.2c-19.7-3.4-39.3-7.8-58.4-13.7z"/><path class="f" d="m654.9 1116.2c1-14.5 1-29 0.2-43.5-0.4-9.6-1.2-19.2-2.3-28.8q-1.4-12.6-3.5-25c-3-17.8-6.9-35.5-12-52.8-5-17.4-11-34.4-18.6-50.8l10.8 52.7c3.4 17.5 6.8 35 9.6 52.6 1.8 10.5 3.5 21 5 31.6q1.6 10.6 3 21.2l5.2 40q-11.5-12.2-23.2-24.3c-27.5-28.4-55.8-56.1-85-82.9q-20.9-19.2-42.5-37.9l-33.5-28.4-34-27.7-34.8-26.8q-17.6-13.1-35.3-25.9 16.7 14.2 33.6 28.1l33.3 28.5 32.9 28.8 32.5 29.4q22.3 20.5 44.2 41.4c27.6 26.4 54.7 53.2 81.2 80.6 17.5 18 34.8 36.3 51.8 54.9q-0.1-7.8-0.3-15.1-9.1-10-18.3-19.9z"/><path class="f" d="m651.9 1182.2c-18.4-1.9-36.8-4.1-55.1-7.1q-1.7-0.3-3.4-0.6c-19.4-3-38.7-6.9-58-11.2-19.2-4.3-38.4-9.3-57.7-14.3 17.8 9 36.5 16.2 55.6 22.1 19.1 5.9 38.7 10.3 58.4 13.7q0.9 0.1 1.7 0.2c19.2 3 38.6 4.9 58 5.3q11.4 0.3 22.8 0 0-3.1-0.1-6-11.1-0.9-22.2-2.1z"/><path class="d" d="m673.3 1539.4c-9-15.3-18.5-30.4-28-45.5l-29.2-45.2c13 12.5 24.8 26.2 35.8 40.6 10.6 13.7 20.2 28.2 29.2 43-1-39.9-1.9-84.5-2.9-130.3q-1.4-2.9-2.8-5.9c-29.4-58.6-81.3-95.9-137.5-126.8-13.9 97-3.5 207.1 88 263.7 3.8 2.3 38.7 22.6 56 30.9q-0.1-5.1-0.2-10.4-4.2-7.1-8.4-14.1z"/><path class="d" d="m629.3 1718c-19.9 1.5-40 1.6-59.9-0.3 19.9-2.4 39.5-4.7 59-7.7 19.5-3 38.9-6.3 58.1-10.5q1.5-0.3 3.1-0.7-0.1-0.1-0.1-0.2c-15.5-8-57.4-24.8-61.9-26.4-101-36.9-193.9 23-261.6 93.9 59 25 120.5 42.8 184.7 29.6 54.7-11.2 105.7-41.9 139.6-86.4q-0.8 0.1-1.6 0.3c-19.6 4.1-39.5 7.1-59.4 8.4z"/><path class="f" d="m579.6 1560.5q-26.5-10.4-53.4-19.9l-41.5-14.3-41.7-13.6-42.2-12.3q-21.1-5.9-42.3-11.4 20.7 7.2 41.5 14l41.4 14.6 41.1 14.8 40.9 15.7q28.3 11 56.3 22.6c34.9 14.3 69.5 29.3 103.8 45.1q-0.2-5.6-0.4-11.5c-34.1-15.5-68.6-30.2-103.5-43.8z"/><path class="f" d="m616.1 1448.7l29.1 45.2c9.6 15.1 19.1 30.2 28.1 45.5q4.2 7 8.4 14.1-0.3-10.3-0.6-21.2c-9-14.8-18.6-29.3-29.2-43-11-14.4-22.8-28.1-35.8-40.6z"/><path class="f" d="m689.6 1698.8q-1.6 0.4-3.1 0.7c-19.2 4.2-38.6 7.5-58.1 10.5-19.5 3-39.1 5.3-59 7.7 19.9 1.9 40 1.8 59.9 0.3 19.9-1.3 39.8-4.3 59.4-8.4q0.8-0.2 1.6-0.3 0.7-0.2 1.5-0.4-1.2-4.9-2.2-10.1z"/><path class="d" d="m705.8 478.1l4.2-37.7c1.6 12.6 1.9 25.4 1.5 38.1-0.4 12.8-1.6 25.5-3.5 38.1q-1.3 8.8-3.1 17.6c30.9-23.4 52.5-58.4 61-96.1 10.2-45.2-1.6-88.8-18.5-130.7-50.9 46.8-94.4 111.6-69.7 183.4 1.3 3.5 15.2 40.4 19.5 47 1.3-7.4 2.5-14.8 3.6-22.3 1.9-12.4 3.5-24.9 5-37.4z"/><path class="d" d="m596.9 593.5c-11.5-8.1-22.5-17-32.5-27 11.9 7.6 23.6 15.1 35.6 22.2 12 7.1 24.1 13.9 36.5 20.2q1.1 0.5 2.2 1.1c-4.8-11.1-20.5-39.4-22.2-42.3-38.7-65.3-116.3-74.1-184.9-65.6 21 40 46.7 77.2 87.7 98.7 34.9 18.3 76.5 24.3 114.9 15.1q-0.5-0.2-1.1-0.5c-12.5-6.5-24.6-13.8-36.2-21.9z"/><path class="f" d="m691.7 585.8q-0.6-1.3-1.2-2.6c3.8-9.5 7-19.3 9.7-29.2q2.7-9.8 4.7-19.8 1.8-8.8 3.1-17.6c1.9-12.6 3.1-25.3 3.5-38.1 0.4-12.7 0.1-25.5-1.5-38.1l-4.2 37.7c-1.5 12.5-3.1 25-5 37.4-1.1 7.5-2.3 14.9-3.6 22.3q-1.2 7.5-2.6 14.9l-5.2 28q-5.1-10.7-10.3-21.4c-12.3-25-25.3-49.8-39-74.1q-9.8-17.6-20.2-34.8l-16.3-26.3-16.8-26.1-17.5-25.6q-9-12.6-18.1-25.1 8.1 13.2 16.5 26.2l16.1 26.4 15.8 26.6 15.4 26.8q10.5 18.6 20.7 37.5c12.7 23.6 25.1 47.5 36.9 71.7q6.6 13.5 13 27 2.9-2 6.1-3.7z"/><path class="f" d="m638.7 610q-1.1-0.6-2.2-1.1c-12.4-6.3-24.5-13.1-36.5-20.2-12-7.1-23.7-14.6-35.6-22.2 10 10 21 18.9 32.5 27 11.6 8.1 23.7 15.4 36.2 21.9q0.6 0.3 1.1 0.5c8.5 4.3 17.1 8.2 25.8 11.8q0.8-3.4 1.8-6.5c-7.8-3.6-15.5-7.3-23.1-11.2z"/><path class="d" d="m1670.7 1543.8l53 9.2c-18 1.1-36.1 0.5-54.1-1.2-18-1.6-35.8-4.4-53.5-8.1q-12.4-2.7-24.6-5.9c30.4 45.7 78 79.3 130.6 94.5 63 18.2 125.7 5.3 186.4-15-61.8-76-149.8-143.1-253.4-114.2-5.1 1.4-58.4 18-68.2 23.5 10.4 2.5 20.9 4.8 31.3 7 17.4 3.7 34.9 7 52.5 10.2z"/><path class="d" d="m1660.1 1154.1c-33.6 15.1-66 32.5-93.9 55.3l5.7 188.5c78.1-53.4 93.9-153.4 88.2-243.8z"/><path class="f" d="m1666.3 1450.4q25.6-12.5 50.8-25.7l38.7-20.8 38.3-21.5 37.6-22.6q18.7-11.5 37.1-23.4-19.3 10.4-38.5 21l-38.7 20.5-38.8 20.2-39.2 19.5q-27.3 13.2-54.8 26c-28 12.9-56.1 25.5-84.4 37.5l0.3 11.1c30.9-13.2 61.4-27.1 91.6-41.8z"/><path class="f" d="m1576 1533.3q7.7 2.4 15.5 4.5 12.2 3.2 24.6 5.9c17.7 3.7 35.5 6.5 53.5 8.1 18 1.7 36.1 2.3 54.1 1.2l-53-9.2c-17.6-3.2-35.1-6.5-52.5-10.2-10.4-2.2-20.9-4.5-31.3-7q-5.6-1.3-11.2-2.6z"/><path class="d" d="m1546.8 570.6c12.7-9.3 25.2-18.9 37.7-28.6l38.9-30.8c-10.3 13.1-21.9 25.2-34.1 36.5-12.1 11.4-25.1 21.9-38.5 31.8q-1.8 1.3-3.7 2.6l0.4 12.3c45.2 2.9 91.1-9.3 129.4-33.3 51.3-32.2 81-83.2 104.4-137.4-90.4-4.2-190.5 15-234.4 104-1.3 2.6-9.5 20.5-16.3 36.6l16-0.2z"/><path class="d" d="m1377.3 547.1c-3.1-18.2-5-36.6-4.9-55 3.9 18 7.7 35.8 12.2 53.5q2.5 10.1 5.3 20.2l22.3-0.2c3.6-11.8 6.5-22 7.1-24.1 24.9-96-38.2-176-109.3-231.9-17.8 56.3-28.7 114.3-10.9 172.2 9.6 31.2 26.2 60.4 48.3 84.5l33.5-0.4q-2-9.4-3.6-18.8z"/><path class="f" d="m1517.6 487.6q7.2-25.3 13.6-50.8l9.4-39.4 8.8-39.5 7.6-39.7q3.5-20 6.7-39.9-4.7 19.6-9.2 39.3l-9.7 39.3-10 39.1-10.8 38.9q-7.6 26.9-15.8 53.7c-7.7 25.5-15.8 50.9-24.4 76.2l10-0.1c8.5-25.6 16.4-51.3 23.8-77.1z"/><path class="f" d="m1589.3 547.7c12.2-11.3 23.8-23.4 34.1-36.5l-38.9 30.8c-12.5 9.7-25 19.3-37.7 28.6l0.3 11.5q1.9-1.3 3.7-2.6c13.4-9.9 26.4-20.4 38.5-31.8z"/><path class="f" d="m1372.4 492.1c-0.1 18.4 1.8 36.8 4.9 55q1.6 9.4 3.6 18.8l9-0.1q-2.8-10.1-5.3-20.2c-4.5-17.7-8.3-35.5-12.2-53.5z"/><path class="f" d="m1373.4 1560.3c-15.1-0.7-38.7-1-68.4-1-77.9 0-197.2 2.3-309.8 6.8-92.9 3.7-181.2 8.8-237.8 15.3q-2.3-3.8-4.9-7.3c-32.4 40.1-30 115.8 6 152.6q1.7-4.5 3.4-9.1c14.6 1.1 31.6 2 50.8 2.7 46.7 1.8 105.8 2.5 172.2 2.5 169.5 0 386.3-4.9 564.2-10.4v-4.3c-177.9 5.5-394.7 10.4-564.2 10.4-66.3 0-125.4-0.8-172.1-2.5-18.6-0.7-35.2-1.6-49.5-2.6 4.4-12.8 7.8-25.8 9.8-39.2 127.5-6.6 255.2-9.9 382.9-9.9 131.1 0 262.2 3.5 393.1 10.5v-4.3c-130.9-7.1-262-10.6-393.1-10.6-127.5 0-255 3.4-382.3 10q0.2-1.9 0.4-3.8c0.9-8.6 1.1-17.4 0.6-26.2 129.2-3.2 257.6-5.2 386.4-5.2 128.5 0 257.4 2 388 6.4v-4.3c-130.6-4.5-259.5-6.4-388-6.4-128.9 0-257.4 2-386.7 5.2q-0.3-3.2-0.7-6.4c-1.4-9.8-3.7-19.5-7.1-28.7 193.9-5 387.9-7.5 581.9-7.5q100.3 0 200.6 0.9v-4.3q-100.3-0.9-200.6-0.9c-194.6 0-389.1 2.5-583.6 7.5q-2.3-5.5-5.2-10.8c56.5-6.3 143.8-11.4 235.7-15 112.5-4.5 231.8-6.8 309.6-6.8 29.6 0 53.2 0.3 68.2 1q88 4.1 175.9 8.1v-4.3q-87.8-4-175.7-8.1z"/><path class="g" d="m1389.2 946.4q-6.5 6.2-12.8 12.4-0.4 0.5-0.9 0.9l14.1-0.2z"/><path class="g" d="m951.8 965.3l293.4-3.9c2-2.7 4.4-5.2 7.2-7.2 10-7.1 23.8-6.9 34.9-1.8 4.7 2.1 8.9 5 12.7 8.3l38-0.5q-0.6-0.8-1.1-1.6c-6.6-9.6-12.1-20-16.3-30.9-2.6-6.8-4.8-14.3-2.9-21.3 2.3-8.5 9.8-14.3 17-19.4 15.9-11.3 32.3-21.3 49.1-30.7-18.1-1-36.1-2.7-54.1-5.5-8.7-1.3-18-3.2-23.9-9.7-4.8-5.5-6.2-13.1-6.9-20.3-1.1-11.7-0.8-23.5 0.8-35 0.8-6.4 2.4-13.2 7.3-17.4 7.5-6.2 18.7-3.5 27.9-0.5 16.1 5.3 32.2 10.1 48.4 14.6v-2.2c-10.6-12-20.8-24.4-30.4-37.5-5.1-7.1-10.4-15-9.9-23.7 0.2-4 1.6-7.7 3.6-11.2l-402.5 4.4z"/><path class="f" d="m1352.4 1026.3q-7.5 13.2-14.8 26.4c-8.2 14.7-16.2 29.4-24.4 44.1q0.1-4.3-0.2-8.6c-0.6-11.6-2.8-23.2-6-34.4-3.4-11.1-7.8-21.9-13.6-32-5.7-10.1-12.7-19.6-21-27.6 5.2 10.3 10.2 20.4 14.5 30.8 4.3 10.3 8.2 20.8 11.3 31.5 3.2 10.6 5.7 21.5 7.7 32.5 1 5.5 1.8 11 2.5 16.6q-0.6 1-1.1 2.1-5.5 10.3-11 20.6-12.3 23.1-24.4 46.3-4.1 7.7-8.1 15.5-6.8 13.4-13.6 26.9-0.2-5.1-0.8-10.2c-1.4-11.5-4.3-22.9-8.2-33.8-4.1-11-9.2-21.5-15.6-31.2-6.4-9.7-13.9-18.7-22.7-26.2 5.8 10 11.4 19.8 16.4 29.8 5 10 9.5 20.2 13.2 30.7 4 10.4 7.1 21.1 9.8 32 1.4 5.7 2.6 11.4 3.8 17.2q-5.7 11.2-11.2 22.5-6.3 12.9-12.4 25.8-9.5 19.9-18.6 40c-7.5 16.2-14.7 32.6-21.7 49 0.4-7.3 0-14.6-0.9-21.8-1.3-11.6-4.2-22.9-8.2-33.9-4-10.9-9.2-21.5-15.6-31.2-6.4-9.7-13.8-18.6-22.6-26.1 5.8 9.9 11.4 19.7 16.4 29.7 4.9 10.1 9.4 20.3 13.2 30.7 3.9 10.5 7 21.2 9.8 32 2.1 8.7 3.8 17.5 5.4 26.5q-3.3 7.9-6.5 15.8c-8.2 20.1-16 40.5-23.3 61q15-28.7 30-57.3 5.3-10 10.6-20c6.3-3 12.6-5.8 19-8.3 10.4-4.1 20.9-7.8 31.7-10.7 10.7-3.1 21.6-5.3 32.7-7.1 11-1.8 22.2-3 33.7-4-11.2-2.8-22.9-3.7-34.5-3.2-11.6 0.4-23.1 2.4-34.4 5.4-11.2 3.2-22.1 7.5-32.3 13.1q-6.2 3.4-12.1 7.4 11.4-21.4 22.8-42.8 9.8-18.4 19.8-36.9l13.8-25.4 12.8-23.7q7-3.2 14-6c10.5-4.2 21-7.8 31.7-10.7 10.7-3.1 21.7-5.3 32.7-7.2 11.1-1.7 22.3-2.9 33.8-3.9-11.2-2.8-22.9-3.7-34.5-3.2-11.6 0.4-23.2 2.4-34.4 5.4-11.2 3.2-22.2 7.5-32.3 13.1q-3.1 1.7-6.2 3.5l23.6-43.4 24.4-45.1 9.1-16.8 2.9-5.3q8-3.7 16.1-7c10.4-4.1 20.9-7.8 31.7-10.7 10.7-3 21.6-5.3 32.7-7.1 11-1.8 22.2-2.9 33.7-4-11.2-2.8-22.8-3.6-34.4-3.2-11.7 0.5-23.2 2.4-34.5 5.5-11.2 3.2-22.1 7.4-32.3 13.1q-4.3 2.3-8.5 5l23.2-43.2 13.5-24.9c14.4-27.5 29.2-54.7 43.3-82.3q7.9-15.3 15.8-30.6 1.3-7.3 2.7-14.7-11.2 9.8-22.2 19.8-5.2 8.8-10.4 17.7c-15.8 26.7-30.9 53.8-46.3 80.7z"/><path class="h" d="m1670.5 826c-5.2-8.3-16.7-9.1-26.4-9.1-28.8 0.2-57.3-1-85.8-2.8 21.7-12.8 43.7-25.1 66.4-36.5 8.7-4.4 18.5-10.4 19.3-20.1 0.6-6.4-3.1-12.3-7-17.5-5.8-7.6-12.4-14.8-19.5-21.2q-2.3-2.1-4.7-4.1c-5.6-4.6-12-9-19.3-9.4-8.7-0.5-16.7 4.8-23.7 9.9q-9.3 6.8-18.2 14c-8.5 6.9-16.8 14-24.9 21.3 6-22.6 12.4-45 19.7-67.2 3-9.3 5.8-20.5-0.5-27.9-4.2-4.9-11-6.5-17.3-7.4-7.2-1-14.4-1.4-21.6-1.4q-6.7 0-13.4 0.7-2.3 0.2-4.5 0.5c-5.8 0.9-11.5 2.5-15.9 6.4-6.5 5.8-8.3 15.2-9.7 23.8-4.4 28.3-5.9 56.5-6.7 84.9-14.5-24.6-28.6-49.4-41.5-75-4.4-8.7-10.4-18.5-20.1-19.4-6.4-0.5-12.3 3.2-17.5 7.1-9.3 7-17.8 15.2-25.3 24.2-2.1 2.5-4.1 5.2-5.8 8.1-2 3.5-3.4 7.2-3.6 11.2-0.5 8.7 4.8 16.6 9.9 23.7 9.6 13.1 19.8 25.5 30.4 37.5q1.2 1.4 2.5 2.9-1.2-0.4-2.5-0.7c-16.2-4.5-32.3-9.3-48.4-14.6-9.2-3-20.4-5.7-27.9 0.5-4.9 4.2-6.5 11-7.3 17.4-1.6 11.5-1.9 23.3-0.8 35 0.7 7.2 2.1 14.8 6.9 20.3 5.9 6.5 15.2 8.4 23.9 9.7 18 2.8 36 4.5 54.1 5.5-16.8 9.4-33.2 19.4-49.1 30.7-7.2 5.1-14.7 10.9-17 19.4-1.9 7 0.3 14.5 2.9 21.3 4.2 10.9 9.7 21.3 16.3 30.9q0.5 0.8 1.1 1.6c3.4 4.8 7.6 9.3 13.2 10.6 9.1 2.2 17.5-4.5 24.3-11.1q0.5-0.4 0.9-0.9 6.3-6.2 12.8-12.4 9.8-9.4 19.9-18.5 11-10 22.2-19.8-1.4 7.4-2.7 14.7c-3.4 19.1-6.2 38.2-7.6 57.7-0.6 8.8-0.9 18.3 4.1 25.4 4.2 6 11.3 9.1 18.2 11.4 11.1 3.7 22.7 6.1 34.3 7.1 6.4 0.6 13.4 0.6 18.6-3.2 7.7-5.9 7.6-17.4 6.7-27.1-2.6-29.1-3.8-58-4.4-87q6.1 9.1 12.4 18.1 2.2 3.2 4.5 6.4c9.5 13.4 19.6 26.5 30.5 39.2 3.9 4.5 8.3 9.3 13.4 12.3 2.3 1.3 4.8 2.3 7.5 2.7q0.8 0.2 1.6 0.3c4.1 0.3 8.2-0.6 12.2-2 2.4-0.9 4.8-2 7.1-3.1 10.4-5.3 20.3-11.7 29.3-19.2 4.9-4.1 9.9-9.1 10.8-15.4 1.4-9.7-6.9-17.7-14.4-24q-4-3.4-8.1-6.8-2.1-1.8-4.2-3.7c-9.6-8.3-19-16.7-28.3-25.3 12.6 3.3 25.3 6.2 38.2 8.6q1.1 0.2 2.2 0.4 5.2 1 10.4 1.8c8.7 1.4 18.2 2.5 25.7-1.9 6.3-3.7 10-10.6 12.8-17.2 4.6-10.8 8-22.1 10.1-33.6 1.1-6.3 1.7-13.3-1.7-18.7z"/><path class="f" d="m1505.3 813.7q1 1.5 1.9 3.2 5.8-4.2 11.5-8.3c8.6-6.1 17.1-12.2 25.7-18.1 8.6-5.9 17.4-11.7 26.1-17.5 8.8-5.7 17.6-11.4 26.4-17.4-10.1 3.5-19.8 7.9-29.1 12.8-9.5 4.9-18.5 10.5-27.3 16.4-8.7 6.1-17.1 12.5-25.1 19.5q-5.2 4.6-10.1 9.4z"/><path class="f" d="m1484.9 786.8c2.4-11.2 4.5-22.3 6.5-33.5 1.8-11.2 3.6-22.5 5-33.8 1.4-11.3 2.6-22.6 3.1-34-3.3 10.9-6 22-8.4 33.1-2.5 11.1-4.5 22.3-6.5 33.5-1.9 11.2-3.7 22.4-5.1 33.7q-1 8.7-1.9 17.3 1.8-0.2 3.5-0.2c1.4-5.4 2.6-10.7 3.8-16.1z"/><path class="f" d="m1456.5 812.2c-3.8-5.7-7.7-11.2-11.7-16.7-6.9-9.4-14-18.6-21.2-27.8-7.3-9-14.7-18-22.4-26.8-7.6-8.7-15.5-17.4-23.8-25.6 6.1 10 12.8 19.6 19.6 29 6.9 9.4 14 18.6 21.2 27.7 7.3 9.1 14.7 18.1 22.4 26.8 4.5 5.2 9.1 10.4 13.8 15.4q1-1.1 2.1-2z"/><path class="f" d="m1446.4 832.5l-8.6-1c-12.2-1.6-24.4-3.2-36.6-5.3-12.2-1.8-24.3-4.1-36.5-6.5l-36.5-7.4c11.4 5.2 23.2 9.3 35.3 12.7 12 3.4 24.2 6 36.6 8.1 12.3 1.9 24.8 3.3 37.3 3.8q4.5 0.1 8.9 0.2-0.1-2.4 0.1-4.6z"/><path class="f" d="m1444.3 861.5c-9.4 5.8-18.6 11.8-27.7 18-9 6.2-18 12.5-26.8 19.2-8.7 6.6-17.4 13.4-25.7 20.7 9.9-5 19.4-10.5 28.8-16.3 9.3-5.7 18.5-11.8 27.6-17.9 9-6.3 18-12.6 26.8-19.2q5.4-4 10.6-8.2-1.6-1.2-3.1-2.6-5.3 3.1-10.5 6.3z"/><path class="f" d="m1463.9 876.7c-2 12.2-3.2 24.5-3.8 36.8-0.5 12.3-0.4 24.6 0.5 36.9 0.9 12.2 2.5 24.5 5.2 36.5l0.2-36.7c0.2-12.2 0.4-24.3 1-36.4 0.5-12.2 1.3-24.3 2.2-36.4l1.2-13.9q-1.9-0.5-3.8-1.1-1.5 7.1-2.7 14.3z"/><path class="f" d="m1498.2 856.8q3.6 4.7 7.4 9.4c7.7 9.4 16 18.5 24.6 27.1 8.6 8.6 17.6 16.9 27.1 24.6 9.5 7.8 19.3 15 29.7 21.4-8.6-8.6-17.4-17-26.1-25.4-8.7-8.4-17.4-16.8-25.8-25.4-8.6-8.5-17-17.2-25.5-25.9q-4.2-4.4-8.4-8.7-1.4 1.5-3 2.9z"/><path class="f" d="m1523.6 844.2c11.5 2.3 23 4.1 34.6 5.6 11.6 1.4 23.3 2.6 35 3.2 11.6 0.6 23.3 0.9 35.1 0.3-11.6-2.3-23.1-4-34.6-5.7-11.5-1.7-23.1-3.2-34.6-4.7-11.5-1.3-23.1-2.8-34.7-4q-7.4-0.8-14.9-1.5-0.3 1.9-0.8 3.6 7.4 1.8 14.9 3.2z"/><path class="e" d="m839.8 1466l0.6-0.1c23.9 0.1 43.5 18.4 44.1 41.3v2.1l600.6-8.2-0.1-2.2q0-0.6 0-1.2c0-23 19.3-42 43.5-42.3h2.2l-15.3-523.8q-2.3-3.2-4.5-6.4l15.3 525.9c-25.1 1.5-45 21.4-45.5 45.7l-592 8.2c-1.8-24-22.1-42.7-46.8-43.3l-21.7-802.4c25.2-1.4 45.1-21.2 45.7-45.6l590.2-6.8c1.5 19.3 14.9 35.1 33 40.9q2.2-0.3 4.5-0.6 6.7-0.6 13.4-0.6v-0.8l-2.1 0.1h-0.5c-23.9 0-43.5-18.3-44.1-41.2l-0.1-2.1h-2.1l-596.6 6.8v2.2l0.1 1.1c0 23-19.3 42-43.6 42.3l-2.2 0.1 21.9 810.9z"/><path class="e" d="m1481.1 802.9q-1.7 0-3.5 0.2-2.2 0.3-4.4 0.7c-6.1 1.4-12 4.2-16.7 8.4q-1.1 0.9-2.1 2c-4.5 4.7-7.5 10.9-8 18.3q-0.2 2.2-0.1 4.6 0.1 1.1 0.3 2.3c0.7 5.9 3.8 11.4 8.1 15.6q0 0.1 0.1 0.2 1.5 1.4 3.1 2.6c2.7 2 5.6 3.5 8.7 4.6q1.9 0.6 3.8 1.1c5.8 1.3 12 1 17.7-0.9 3.7-1.3 7.1-3.3 10.1-5.8q1.6-1.4 3-2.9c3.4-3.7 6-8.1 7.5-12.9q0.5-1.7 0.8-3.6 0.1-0.7 0.2-1.3c1.1-7.9 0-14.2-2.5-19.2q-0.9-1.7-1.9-3.2c-5.4-7.5-14.6-11-24.2-10.8z"/></svg>