<svg version="1.2" xmlns="http://www.w3.org/2000/svg" viewBox="114 586 2017 728" width="2017" height="728"><style>.a{fill:#ffa500}</style><path class="a" d="m285.7 697.6q-10 0-10 26.7 0 26.4 1.4 83.5 1.4 56.7 1.4 82.3 18.3-4.3 31.4-31.8 10.6-23.1 17.5-44.4 6.9-21.7 9-26.7v-26.4q0-21.7-15.5-42.3-15.2-20.9-35.2-20.9zm-4.1 480.9q35.5-5.8 55.5-34 20-28.2 20-65 0-36.9-5.9-64.7-5.9-28.2-13.1-42.3-6.9-14.4-16.2-24.5-11.4-12.3-18.6-14.9h-25.1q3.4 102.3 3.4 245.4zm-42.7 20.2l3.4-182.1-4.8-300.6v-4.4q0-39.7 11.7-50.5 5.9-5.5 14.8-5.5 50.3 0 78.6 34 28.2 34 28.2 87.4 0 33.6-16.8 69.8-16.9 36.1-40.4 53.8 43.1 30.4 61.4 77.3 18.6 46.7 18.6 98 0 27.1-13.1 55.6-12.8 28.6-25.9 45.5-12.7 17-33.7 28.6-21 11.5-46.2 11.5h-2.7q-33.1 0-33.1-18.4zm189.1-213.9l0.7-28.2q0-3.6-1-3.6v-13.4q0-116.3 12.7-165.4 10.7-41.6 20.7-51.4 10-9.7 19.6-9.7 82 0 113.1 86.7 17.9 49.9 17.9 122.9v5.4l1.3 83.8q0 212.8-94 212.8-38.9 0-59.6-45.1-19.7-43.4-24.1-85.3-7.3-63.2-7.3-109.5zm41-144.9l0.7 43.7-3.4 68.3q0 107.3 16.5 187.2 17.6 46.6 33.4 54.9 12.8 0 23.1-10.8 10.4-10.9 16.2-28.9 6.2-18.5 10.3-38.7 3.8-19.9 5.9-42.6 3.4-39.4 3.4-67.2 0-27.9-4.8-85.3-4.5-57.5-4.5-85.6v-13.1q-0.6-27.1-16.8-48-16.2-21.3-41.4-21.3-24.1 0-32 28.5-6.6 23.9-6.6 58.9zm183.3 144.9l0.7-28.2q0-3.6-1-3.6v-13.4q0-116.3 12.7-165.4 10.7-41.6 20.7-51.4 10-9.7 19.6-9.7 82 0 113.1 86.7 17.9 49.9 17.9 122.9v5.4l1.3 83.8q0 212.8-94 212.8-38.9 0-59.6-45.1-19.7-43.4-24.1-85.3-7.3-63.2-7.3-109.5zm41-144.9l0.7 43.7-3.4 68.3q0 107.3 16.5 187.2 17.6 46.6 33.4 54.9 12.8 0 23.1-10.8 10.3-10.9 16.2-28.9 6.2-18.5 10.3-38.7 3.8-19.9 5.9-42.6 3.4-39.4 3.4-67.2 0-27.9-4.8-85.3-4.5-57.5-4.5-85.6v-13.1q-0.6-27.1-16.8-48-16.2-21.3-41.4-21.3-24.1 0-32 28.5-6.6 23.9-6.6 58.9zm287 39l-1.3 44.1q0 31.8 24.1 118.9 24.4 87.1 40.6 115.3 2.1 3.2 9 13.3 7.2 10.1 10.3 17.7 3.5 7.6 3.5 15.9 0 8.3-6.2 14.1-5.9 5.4-13.8 5.4-16.6 0-34.5-36.4-17.9-36.9-31.7-90-23.7-90.7-35.1-157.9-25.5 53.1-25.5 128.6v137q0 17.3-14.5 17.3-10.7 0-17.2-6.1-6.2-6.5-6.2-17.4v-224.7q0-40.1 6.5-119.6 6.9-79.9 6.9-119.6 6.2-14.1 17.9-14.1 12.1 0 18.3 6.8 6.6 6.5 6.6 15.9v2.2q-9.4 17-9.4 134.8v26.4q1.1-1.8 25.9-54.2 60.3-127.2 74.4-127.2 10.3 0 18.6 5 8.6 5.1 8.6 14.8 0 0.8-16.9 29.7-52 89.2-58.9 104zm115.1 313.7l7.9-12.7 29.3 5.4q13.5 0 23.4-12.2 10-12.3 14.9-30.8 9.3-35.4 9.3-62.5 0-27.4-8.6-54.2-8.7-26.7-21.4-49.5-12.4-23.1-24.8-46.9-29.6-56.4-29.6-110.6 0-33.2 10.6-58.9 20-47.7 53.1-47.7 12.4 0 23.4 8.3 11.4 8.3 11.4 18.1 0 17-17.2 17-7.6 0-14.9-4.4-22.3 1.1-30.3 52.4-1.7 11.2-1.7 26.4 0 14.8 6.2 36.9 6.2 22 15.5 39.3 9.7 17 20.3 38 11.1 20.6 20.7 40.1 22.1 45.2 21.7 103.3 0.4 44.8-19.6 85.7-9.7 20.2-27.6 33.2-17.6 12.6-40.3 13v1.8q-28.9-4.3-31.7-28.5zm239.8-275v-94.3l4.8-135.9v-4.7q0-36.8 15.5-36.8 14.2 0 37.9 68.6 43.4 124.7 104.1 411.6l0.7 3.6 2.7-258v-219q4.2-18.4 23.1-18.4 19 0 19 28.9v4.4q-4.2 9-4.2 21.6l-4.4 273.6v226.2q0 11.2-5.9 22-5.9 10.8-14.5 10.8-14.8 0-57.9-152.1-43-152.5-85.1-327.7v242.8q0 35.4 4.9 105.5 5.1 70.1 5.1 105.5 0 6.9-7.9 11.6-7.9 4.3-20.3 4.3-12.1 0-12.1-11.5l3.5-53.2q0-38.3-4.5-124.3-4.5-85.9-4.5-105.1zm255.7 135.9l4.8-216.1-3.8-62.5q0-52.4 29.6-52.4 19 0 51.7 9.4 32.7 9 32.7 23.5 0 15.1-20.6 23.1-32.8-11.6-53.4-14.1 1 15.9 1 31.8l-3.1 106.2q0 0.7 2.1 11.6l25.1-1.1q34.1 0 34.1 20.2 0 8-6.2 14.1-6.2 5.8-15.8 5.8-9.3 0-20.4-1.4h-17.9q2.1 28.1 2.1 56 0 0-3.1 134 0 41.6 1.4 41.6l52-1.8q26.9 0 26.9 18 0 11.2-9.3 16.3-9.3 5.1-21 5.1h-59.7q-9.3 0-16.8-6.5-7.6-6.9-8-16.3v-19.5zm148.9 139.1l7.9-12.7 29.3 5.5q13.4 0 23.4-12.3 10-12.3 14.8-30.7 9.3-35.4 9.3-62.5 0-27.5-8.6-54.2-8.6-26.8-21.3-49.5-12.4-23.2-24.8-47-29.7-56.4-29.7-110.6 0-33.2 10.7-58.9 20-47.7 53.1-47.7 12.4 0 23.4 8.3 11.4 8.3 11.4 18.1 0 17-17.3 17-7.5 0-14.8-4.4-22.4 1.1-30.3 52.4-1.7 11.2-1.7 26.4 0 14.8 6.2 36.9 6.2 22 15.5 39.4 9.6 16.9 20.3 37.9 11 20.6 20.7 40.1 22 45.2 21.7 103.3 0.3 44.8-19.6 85.7-9.7 20.2-27.6 33.2-17.6 12.7-40.3 13v1.8q-29-4.3-31.7-28.5zm238.1 16.3l-13.1-9.8-1.4-56.7q0-0.4 1-25.3-2.7-9.4-11.3-167-8.3-157.5-9-192.5-1.4 0-2.8 0-57.2-1.1-57.2-22.1 0-6.9 7.6-11.2 7.6-4.7 14.8-4.7 0 0 95.8 6.9l11.4-0.4q22 0 22 17.7 0 9.1-7.2 14.8-7.2 5.5-16.2 5.5l-32.4-5.1-1.4 7.6q0 70.1 11.8 209.9 11.7 139.9 11.7 210.3 0 8.7-7.6 15.5-7.6 6.6-16.5 6.6z"/></svg>